<?xml version="1.0" encoding="utf-8"?>
<!-- Generator: Adobe Illustrator 24.2.1, SVG Export Plug-In . SVG Version: 6.00 Build 0)  -->
<svg version="1.1" id="Layer_1" xmlns="http://www.w3.org/2000/svg" xmlns:xlink="http://www.w3.org/1999/xlink" x="0px" y="0px"
	 viewBox="0 0 62 62" style="enable-background:new 0 0 62 62;" xml:space="preserve">
<style type="text/css">
	.st0{fill:#000000;}
</style>
<path class="st0" d="M0.9,37.9c0.3-0.2,0.5-0.5,0.9-0.7c1-0.4,2-0.8,3-1.2c0.2-0.1,0.4-0.3,0.4-0.4c0.1-1.2,0.7-1.9,1.9-2.2
	c-0.1-1-0.1-2.1-0.2-3.1c0-0.7,0.1-1.4,0.2-2c0.1-0.7,0.6-1,1.1-0.8c0.5,0.1,0.7,0.6,0.6,1.2c-0.1,0.7-0.1,1.4-0.2,2.2
	c3.4-1.1,6.6-0.9,9.6,0.6c1.1-2.2-0.3-5.3-2.7-6.3c-1.7-0.7-3.4-0.5-4.9,0.6c-0.2,0.1-0.4,0.3-0.6,0.4c-0.4,0.1-0.8,0-1-0.4
	c-0.2-0.4-0.1-0.8,0.2-1.1c1.1-0.9,2.3-1.5,3.7-1.6c4.8-0.4,8.3,3.6,7.3,8.3c-0.2,1-0.4,1.9-0.6,2.9c1,0.4,1.6,1,1.6,2.1
	c0,0.1,0.2,0.3,0.3,0.3c1.1,0.4,2.2,0.8,3.4,1.1c0.4,0.1,0.9-0.2,1.4-0.3c-0.1-1.2-0.1-2.4-0.2-3.5c-0.1-4.2,3.5-7.4,7.7-6.8
	c4,0.6,6.4,4.2,5.6,8.3c-0.2,0.9-0.4,1.9-0.6,2.8c0.9,0.3,1.5,0.9,1.6,1.8c0,0.1,0.3,0.2,0.4,0.2c2.7-0.1,5.4-0.1,8.1-0.3
	c3.1-0.2,6.2-0.9,9.3-0.7c0.6,0,1.3,0.1,1.9,0.2c0.5,0.1,0.7,0.4,0.7,0.9c0,0.5-0.5,0.8-0.9,0.8c-3.4-0.5-6.7,0.2-10,0.5
	c-3.1,0.3-6.1,0.3-9.2,0.4c-0.4,0-0.6,0.1-0.9,0.4c-0.4,0.5-1,0.7-1.7,0.6c-2.6-0.2-5.1-0.4-7.7-0.5c-1.3-0.1-2.5-0.2-3.8-0.3
	c-1.7-0.1-2.3-0.8-2.2-2.5c0-0.1,0-0.2,0-0.3c-1.2-0.4-2.3-0.8-3.5-1.1c-0.1,0-0.3,0.1-0.4,0.2c-0.5,0.4-1,0.6-1.6,0.6
	c-3.9-0.3-7.8-0.5-11.6-0.8c-0.4,0-0.9-0.2-1.3-0.4c-0.3-0.2-0.6-0.3-0.9-0.1c-0.9,0.4-1.8,0.7-2.7,1c-0.8,0.3-1,0.3-1.6-0.4
	C0.9,38.3,0.9,38.1,0.9,37.9z M28,34.9c3.3-1.1,6.5-0.8,9.5,0.7c0.7-1.7,0.2-4-1.3-5.3c-1.5-1.4-3.8-1.7-5.7-0.8
	C28.7,30.4,27.7,32.4,28,34.9z M8,35.3C8,35.3,8,35.3,8,35.3c-0.2,0-0.4,0-0.5,0c-0.6-0.1-0.5,0.3-0.6,0.7c-0.1,0.4,0.1,0.6,0.5,0.6
	c3.8,0.3,7.6,0.5,11.5,0.8c0.2,0,0.4,0,0.5-0.1c0.4-0.5,0-1.1-0.6-1.2C15.2,35.8,11.6,35.5,8,35.3z M37.8,41.4c0.9,0,0.8,0,0.9-0.7
	c0.1-0.7-0.4-0.5-0.8-0.6c-1.3-0.1-2.6-0.2-3.9-0.3c-2.4-0.2-4.9-0.3-7.3-0.5c-0.4,0-0.6,0.1-0.6,0.5c0,0.3-0.2,0.7,0.5,0.8
	C30.4,40.8,34.2,41.1,37.8,41.4z M37.1,38.2c0.2-0.9,0.2-0.9-0.5-1.2c-2.6-1.2-5.2-1.4-7.9-0.5c-0.7,0.2-0.7,0.3-0.5,1.1
	C31.2,37.8,34.1,38,37.1,38.2z M8.9,33.6c2.9,0.2,5.9,0.4,8.8,0.6c0.3-0.6,0.1-0.9-0.4-1.2c-2.6-1.2-5.2-1.4-7.9-0.6
	C8.9,32.6,8.7,32.9,8.9,33.6z"/>
<path class="st0" d="M0.9,55.7c0.3-0.4,0.7-0.6,1.3-0.6c19.2,0,38.4,0,57.5,0c0.2,0,0.4,0,0.6,0.1c0.5,0.1,0.7,0.5,0.6,0.9
	c-0.1,0.4-0.3,0.7-0.8,0.8c-0.1,0-0.3,0-0.4,0c-19.2,0-38.4,0-57.7,0c-0.5,0-1-0.1-1.2-0.6C0.9,56.1,0.9,55.9,0.9,55.7z"/>
<path class="st0" d="M0.9,59.4c0.3-0.5,0.7-0.6,1.2-0.6c11.5,0,23.1,0,34.6,0c0.3,0,0.7,0.1,1,0.3c0.5,0.4,0.3,0.9-0.3,1.5
	c-12.2,0-24.3,0-36.5,0C0.9,60.2,0.9,59.8,0.9,59.4z"/>
<path class="st0" d="M40.2,60.6c-0.4-0.3-0.7-0.6-0.6-1.2c0.2-0.5,0.6-0.6,1.1-0.6c6.3,0,12.7,0,19,0c0.5,0,1,0.1,1.1,0.6
	c0.2,0.5-0.1,0.9-0.5,1.2C53.7,60.6,46.9,60.6,40.2,60.6z"/>
<path class="st0" d="M35.6,10.1c1-0.7,2-1.1,3.2-1.4c0.2,0,0.4-0.2,0.4-0.4c1.1-2.1,1.3-2,3.4-2c1.4,0,2.9-0.1,4.3-0.1
	c1.2,0,1.7,0.4,2,1.5c0.5,1.6,0.9,3.2,1.4,4.7c0.3,0.9,0.1,1.6-0.5,2.2c-0.6,0.7-1.3,1.4-1.9,2.1c-0.5,0.6-1.1,0.8-1.9,0.6
	c-0.6-0.2-1.2-0.3-1.8-0.4c-0.5-0.1-0.9,0-1.1,0.5c-0.2,0.4,0.1,0.8,0.6,1.1c0.6,0.3,1.3,0.5,1.9,0.8c0.8,0.3,1.5,0.2,2.2-0.3
	c0.7-0.5,1.5-1.1,2.2-1.6c2.2-1.6,4.7-2.4,7.4-2.4c0.8,0,1.7,0,2.5,0c0.6,0,1,0.4,1,0.9c0,0.5-0.4,0.8-1,0.9c-1.3,0-2.6,0-3.9,0.1
	c-1.9,0.1-3.5,0.9-5,2c-0.7,0.5-1.4,1-2.1,1.5c-1.3,1-2.8,1.1-4.3,0.5c-0.4-0.2-0.6-0.2-0.8,0.2c-0.4,0.5-0.8,0.9-1.3,1.4
	c1.1,1.5,0.5,2.7-0.8,3.8c-0.7,0.6-1.6,0.5-2.5-0.1c-2.3-1.7-4.7-3.5-7-5.2c-0.8-0.6-1.6-1.2-2.4-1.8c-1-0.8-1.2-1.9-0.5-2.9
	c1-1.4,1.5-1.6,3.1-1.2c0.3-0.5,0.6-1.1,0.9-1.6c0.1-0.1,0-0.3,0-0.4c0.1-0.8,0-1.6,0.2-2.3c0.5-1.8,1.2-3.6,1.8-5.3
	c0.8-2.2,2.5-3.4,4.8-3.7c2.1-0.3,4.3-0.6,6.4-0.9c1.8-0.3,3.5,0.1,5.1,0.9c0.5,0.2,1,0.5,1.5,0.7c0.5,0.3,0.6,0.8,0.4,1.2
	c-0.2,0.4-0.7,0.6-1.2,0.4c-0.4-0.2-0.7-0.3-1-0.5c-1.5-0.8-3.1-1.1-4.8-0.9c-2.2,0.3-4.5,0.6-6.7,1c-1.2,0.2-2.2,0.8-2.6,1.9
	C36.7,6.9,36.2,8.5,35.6,10.1z M42.5,19.9c-1.1-1-1.4-2.1-1-3.2c0.6-1.5,1.9-1.8,3.4-1.5c0-0.1,0-0.2,0-0.3c-0.1-2-1.6-3.8-3.5-4.4
	c-2-0.6-4.2,0.1-5.4,1.8c-0.8,1.1-1.4,2.4-2.1,3.6c2.4,1.8,4.8,3.6,7.2,5.3C41.6,20.8,42.1,20.4,42.5,19.9z M46.8,15.4
	c0.6-0.7,1.1-1.2,1.6-1.8c0.1-0.2,0.2-0.5,0.2-0.8c-0.4-1.5-0.8-2.9-1.2-4.4c-0.1-0.4-0.3-0.5-0.6-0.5C45.1,8,43.5,8,41.8,8
	c-0.4,0-0.6,0.2-0.7,0.6C44.6,9.5,46.5,11.7,46.8,15.4z M31.5,16.4c-0.2,0.3-0.5,0.5-0.6,0.8c-0.1,0.1,0.1,0.4,0.3,0.5
	c3,2.3,6.1,4.5,9.1,6.8c0.4,0.3,0.6,0.1,0.9-0.2c0.3-0.4,0.3-0.6-0.1-0.9C38,21.2,35,18.9,32,16.7C31.9,16.6,31.7,16.5,31.5,16.4z"
	/>
<path class="st0" d="M24.4,47.3c-2.4-0.1-4.7-0.7-6.9-1.8c-0.4-0.2-0.7-0.5-0.7-1c0.1-0.6,0.7-0.9,1.4-0.6c1.7,0.8,3.5,1.3,5.4,1.6
	c0.4,0,0.8,0.1,1.2,0.1c0.8,0.1,1.1,0.4,1.1,0.9c0,0.6-0.4,0.9-1.2,0.8C24.6,47.3,24.5,47.3,24.4,47.3z"/>
<path class="st0" d="M58.2,5.3c-0.5-0.1-1.3-0.1-2.1-0.2c-0.5-0.1-0.8-0.5-0.7-1c0.1-0.5,0.5-0.8,1-0.8c1.1,0.1,2.3,0.1,3.4,0.2
	c0.7,0,1.1,0.4,1.1,0.9c0,0.5-0.4,0.9-1.1,0.9C59.4,5.3,58.9,5.3,58.2,5.3z"/>
</svg>
