<?xml version="1.0" encoding="utf-8"?>
<!-- Generator: Adobe Illustrator 24.2.1, SVG Export Plug-In . SVG Version: 6.00 Build 0)  -->
<svg version="1.1" id="Layer_1" xmlns="http://www.w3.org/2000/svg" xmlns:xlink="http://www.w3.org/1999/xlink" x="0px" y="0px"
	 viewBox="0 0 62 62" style="enable-background:new 0 0 62 62;" xml:space="preserve">
<style type="text/css">
	.st0{fill:#000000;}
</style>
<path class="st0" d="M47.2,45c0.9-0.5,1.8-1,2.7-1.6c0.2-0.1,0.2-0.4,0.2-0.7c0-1.5,1-2.7,2.5-2.8c1.4-0.2,2.7,0.7,3.1,2.1
	c0.3,1.1-0.1,2.3-1.1,2.9c-0.9,0.7-2.2,0.7-3.1,0.1c-0.3-0.2-0.5-0.2-0.9,0c-1,0.6-2,1.2-3,1.8C47.1,47,47,47.2,47,47.7
	c-0.1,3.8,0.2,7.6,0.9,11.4c0.3,1.9,0.2,2-1.7,2c-8.3,0-16.5,0-24.8,0c-1.4,0-1.6-0.3-1.2-1.6c0.8-2.6,1.5-5.1,2.3-7.7
	c-0.6-0.3-1.1-0.5-1.6-0.8c-6-2.8-12-5.6-18-8.5c-1.4-0.6-2.2-1.6-2.3-3.2c-0.1-1.2,0.4-2.2,1.4-3c1.9-1.5,3.7-3.1,5.6-4.6
	c0.2-0.2,0.4-0.4,0.4-0.8c0-0.3,0.3-0.7,0.5-0.9c2.4-1.9,4.8-3.7,7.2-5.6c0.2-0.1,0.3-0.2,0.5-0.4c-0.2-0.1-0.3-0.2-0.5-0.3
	c-2.5-1.4-5-2.8-7.4-4.3c-0.3-0.2-0.5-0.2-0.9,0c-1.1,0.7-2.5,0.6-3.4-0.3c-0.9-0.9-1.1-2.3-0.4-3.4c0.7-1.1,2-1.6,3.2-1.2
	c1.3,0.4,2,1.6,2,2.9c0,0.2,0.1,0.5,0.3,0.6c2.8,1.6,5.6,3.2,8.4,4.8c0.2,0.1,0.4,0.1,0.6,0.1c1.3-0.3,2.5-0.8,3.8-1.1
	c1.6-0.4,3-0.9,4.2-1.9c1.4-1.2,2.8-1.8,4.7-1.8c1.7,0.1,3.4-0.2,5.1-0.3c0.6,0,1.1,0.1,1.7,0.3c0.7,0.2,1.3,0.5,1.9,0.8
	c0.5,0.2,0.8,0.1,1.2-0.2c1.5-1.4,3.1-2.7,4.7-4.1c0.3-0.3,0.6-0.5,1.1-0.3c0.1,0,0.4-0.1,0.5-0.1c0-0.1,0-0.1,0-0.2
	c-1.4,0.1-2.7,0.2-4.1,0.3c-1.4,0.1-2.8,0.2-4.2,0.3c-0.4,0-0.7,0.2-0.9,0.5c-2.2,2.6-5.8,3.5-9,2.3c-3.2-1.2-5.3-4.3-5.3-7.7
	c0-3.9,3-7.3,6.7-7.9c4.1-0.6,7.9,1.7,9.1,5.5c0.1,0.2,0.1,0.4,0.2,0.7c1.4-0.2,2.8-0.4,4.1-0.7c4.5-0.7,9.1-1.5,13.6-2.2
	c1.5-0.2,3,0.5,3.8,1.8c0.8,1.4,0.8,3-0.2,4.2c-1.7,2.2-3.4,4.3-5.2,6.5c-0.3,0.4-0.6,0.7-0.9,1.1c-0.3,0.3-0.6,0.6-0.3,1.2
	c0.1,0.2-0.1,0.6-0.3,0.8c-1.1,1.4-2.2,2.8-3.4,4.2c-1.2,1.4-1.8,3-1.8,4.9c0,1.2,0,2.3,0,3.6c0.9-0.5,1.8-1.1,2.8-1.6
	c0.1-0.1,0.1-0.4,0.1-0.6c0-1.5,1-2.7,2.5-2.9c1.4-0.2,2.7,0.8,3,2.2c0.3,1.4-0.5,2.8-1.9,3.2c-0.8,0.3-1.6,0.2-2.4-0.3
	c-0.3-0.2-0.5-0.2-0.8,0c-1.1,0.6-2.2,1.3-3.3,1.9c-0.2,0.1-0.4,0.3-0.4,0.5c-0.4,3-0.8,6.1-1.2,9.1C47.2,44.8,47.2,44.8,47.2,45z
	 M46.5,36.5c-0.3,0.1-0.4,0.2-0.6,0.3c-3.6,2.1-7.3,4.2-10.9,6.3c-0.2,0.1-0.4,0.2-0.6,0.3c-0.4,0.2-0.8,0.1-1.1-0.3
	c-0.3-0.4-0.2-0.8,0.2-1.1c0.1-0.1,0.3-0.2,0.5-0.3c4-2.3,8.1-4.7,12.1-7c0.4-0.2,0.6-0.4,0.6-0.9c0-1.3,0.2-2.5,0.2-3.8
	c0-2.4,0.8-4.6,2.4-6.5c1-1.1,1.8-2.3,2.8-3.5c-2.1-1.4-4.1-2.7-6.1-4c-0.3,0.2-0.5,0.4-0.7,0.6c-1.2,1.1-2.5,2.1-3.7,3.2
	c-0.9,0.8-1.9,1-3,0.5c-0.4-0.2-0.9-0.3-1.3-0.5c-0.7-0.4-1.5-0.4-2.3-0.4c-1.7,0.1-3.5,0.3-5.3,0.3c-0.7,0-1.3,0.2-1.8,0.6
	c-2,1.7-4.4,2.8-7,3.2c-0.5,0.1-0.9,0.2-1.5,0.3c1.2,0.7,2.3,1.3,3.4,1.9c0.7,0.4,1.4,0.8,2.1,1.2c0.4,0.2,0.6,0.6,0.4,1
	c-0.1,0.3-0.5,0.5-0.8,0.6c-0.2,0.1-0.5-0.1-0.7-0.3c-1.9-1.1-3.8-2.2-5.7-3.3c-0.3-0.2-0.5-0.2-0.8,0.1c-0.8,0.6-1.5,1.2-2.3,1.8
	c-1.7,1.3-3.5,2.7-5.3,4c1.3,1.8,2.5,3.5,3.8,5.3c0.1-0.1,0.2-0.1,0.3-0.2c2-1.3,4.1-2.6,6.1-3.9c0.7-0.4,1.1-0.3,1.5,0.4
	c0.3,0.5,0.5,1.1,0.8,1.6c1.6,3.6,2.9,7.2,2.8,11.2c0,0.2,0.2,0.4,0.3,0.5c0.6,0.4,1.2,0.7,1.8,1.1c1,0.8,1.3,1.9,1,3.2
	c-0.3,1.2-1.2,2-2.4,2.2c-0.6,0.1-1.1,0-1.8,0c-0.7,2.2-1.3,4.5-2,6.8c8.1,0,16.1,0,24,0c-0.3-3.7-0.6-7.4-0.9-11.1
	c0,0-0.2,0.1-0.3,0.2c-3.2,1.8-6.4,3.7-9.6,5.5c-0.2,0.1-0.4,0.3-0.7,0.4c-0.5,0.2-0.9,0.1-1.1-0.4c-0.2-0.4-0.1-0.8,0.3-1.1
	c0.2-0.1,0.3-0.2,0.5-0.3c3.6-2.1,7.1-4.1,10.7-6.1c0.3-0.2,0.5-0.4,0.5-0.8c0.1-0.9,0.2-1.8,0.3-2.6C45.9,40.8,46.2,38.7,46.5,36.5
	z M48,15.3c1.6,1,3.1,2,4.6,3c0.1-0.1,0.2-0.2,0.3-0.3c2.1-2.6,4.2-5.2,6.3-7.8c0.7-0.8,0.8-1.7,0.3-2.5c-0.5-0.8-1.3-1.1-2.4-0.9
	C53.7,7.3,50.4,7.8,47,8.4c-3,0.5-6,1-9.1,1.5c-0.5,0.1-1,0.3-1.2,0.9c-0.5,1.1,0.3,2.3,1.5,2.2c3.7-0.3,7.4-0.6,11.2-0.9
	c0.5,0,1,0,1.2,0.5c0.2,0.5-0.1,0.9-0.5,1.2C49.4,14.2,48.7,14.7,48,15.3z M8.9,32.6c-2.1,1.7-4.1,3.4-6.1,5.1
	c-0.5,0.4-0.7,1.1-0.5,1.8c0.2,0.7,0.7,1.1,1.4,1.4c6.8,3.2,13.6,6.4,20.4,9.6c0.2,0.1,0.5,0.2,0.7,0.3c0.7,0.2,1.4-0.1,1.7-0.7
	c0.3-0.6,0.2-1.3-0.3-1.7c-0.3-0.2-0.6-0.4-0.9-0.6c-5-2.8-10-5.6-15.1-8.3c-1-0.6-1-1.2-0.1-1.8c0.5-0.4,1-0.8,1.6-1.1
	c-0.1-0.1-0.1-0.2-0.1-0.3C10.6,35,9.7,33.9,8.9,32.6z M36.2,14c-1.1-0.9-1.6-2.1-1.2-3.5c0.4-1.4,1.3-2.1,2.7-2.4
	c-0.6-2.7-3.2-4.8-6-4.8c-3-0.1-5.7,2-6.4,4.9c-0.7,2.9,0.7,5.9,3.3,7.3C31.2,16.7,34.4,16.1,36.2,14z M11.7,38.4
	c3.9,2.2,7.7,4.3,11.6,6.4c-0.1-3.9-1.5-7.4-3.1-10.8c-0.2,0.1-0.4,0.3-0.6,0.4c-1.8,1.2-3.7,2.3-5.5,3.5c-0.8,0.5-0.9,0.5-1.7-0.1
	C12.3,38,12,38.2,11.7,38.4z M54,42.7c0-0.6-0.5-1.1-1.1-1.1c-0.6,0-1.1,0.5-1.1,1.1c0,0.6,0.5,1.1,1.1,1.1
	C53.5,43.8,54,43.3,54,42.7z M5.8,16c-0.6,0-1.1,0.6-1.1,1.2c0,0.6,0.5,1.1,1.1,1c0.6,0,1.1-0.5,1.1-1.1C6.9,16.5,6.4,16,5.8,16z
	 M55.5,31c0-0.6-0.5-1.1-1.1-1.1c-0.6,0-1.1,0.5-1.1,1.1c0,0.6,0.4,1.1,1,1.1C55,32.1,55.5,31.6,55.5,31z"/>
<path class="st0" d="M40,27.6c0-1.4,0.8-2.5,2-2.8c1.2-0.3,2.5,0.2,3.2,1.3c0.6,1.1,0.4,2.5-0.5,3.4c-0.9,0.9-2.3,1.1-3.4,0.4
	c-0.4-0.2-0.6-0.2-1,0c-2.1,1.2-4.2,2.4-6.3,3.6c-0.3,0.1-0.6,0.3-0.9,0.2c-0.2-0.1-0.5-0.4-0.6-0.6c0-0.3,0.1-0.7,0.3-0.9
	c0.4-0.3,0.8-0.5,1.2-0.7c1.8-1,3.5-2,5.3-3C39.9,28.2,40.2,28,40,27.6z M42.8,26.4c-0.6,0-1.1,0.5-1.1,1.1c0,0.6,0.5,1,1.1,1
	c0.6,0,1.1-0.5,1.1-1.1C43.9,26.9,43.4,26.4,42.8,26.4z"/>
<path class="st0" d="M30.3,53.4c0-2,1.6-3.6,3.5-3.8c0.6,0,1,0.2,1.1,0.7c0.1,0.5-0.3,0.9-0.9,1c-1.1,0.1-1.9,0.8-2,1.8
	c-0.1,0.9,0.4,1.9,1.3,2.2c0.9,0.4,1.9,0.1,2.6-0.8c0.4-0.5,0.9-0.7,1.3-0.4c0.4,0.3,0.5,0.8,0.1,1.4c-0.9,1.3-2.7,1.9-4.2,1.4
	C31.4,56.6,30.3,55.1,30.3,53.4z"/>
<path class="st0" d="M28.2,27.7c0,1.7-1.1,3.2-2.8,3.7c-1.6,0.4-3.4-0.2-4.2-1.6c-0.3-0.5-0.2-1,0.2-1.2c0.4-0.3,0.9-0.2,1.2,0.3
	c0.1,0.1,0.2,0.2,0.3,0.3c0.7,0.8,1.9,0.9,2.8,0.3c0.9-0.6,1.1-1.8,0.6-2.7c-0.4-0.7-0.9-1-1.7-1.1c-0.7-0.1-1-0.4-1-1
	c0.1-0.5,0.5-0.8,1.1-0.7C26.6,24.1,28.2,25.8,28.2,27.7z"/>
<path class="st0" d="M34.4,46.4c-2.3,0-4-1.6-4.1-3.6c-0.1-2.1,1.5-3.8,3.4-3.9c0.7,0,1.1,0.2,1.2,0.7c0,0.5-0.3,0.9-1,0.9
	c-1.1,0.1-1.8,0.9-1.9,1.9c-0.1,1,0.5,1.9,1.4,2.2c0.9,0.3,1.8,0,2.4-0.8c0.2-0.2,0.5-0.5,0.8-0.5c0.2,0,0.6,0.2,0.7,0.4
	c0.1,0.3,0.1,0.7,0,0.9C36.6,45.8,35.5,46.4,34.4,46.4z"/>
<path class="st0" d="M33.7,36.7c-2.3,0-4-1.7-4-3.7c0-2,1.6-3.7,3.5-3.8c0.7,0,1.1,0.2,1.1,0.7c0,0.5-0.3,0.8-0.9,0.9
	c-1.7,0.2-2.5,2-1.6,3.3c0.8,1.1,2.4,1.2,3.3,0.1c0.1-0.2,0.3-0.4,0.4-0.5c0.3-0.3,0.7-0.2,1,0c0.3,0.3,0.4,0.7,0.1,1.1
	C35.9,36,34.8,36.6,33.7,36.7z"/>
</svg>
