<?xml version="1.0" encoding="utf-8"?>
<!-- Generator: Adobe Illustrator 24.2.1, SVG Export Plug-In . SVG Version: 6.00 Build 0)  -->
<svg version="1.1" id="Layer_1" xmlns="http://www.w3.org/2000/svg" xmlns:xlink="http://www.w3.org/1999/xlink" x="0px" y="0px"
	 viewBox="0 0 62 62" style="enable-background:new 0 0 62 62;" xml:space="preserve">
<style type="text/css">
	.st0{fill:#000000;}
</style>
<path class="st0" d="M8.1,61.4c-0.4-0.3-0.7-0.6-0.6-1.2c0.2-0.5,0.6-0.6,1.2-0.6c4.8,0,9.6,0,14.4,0c0.2,0,0.5,0,0.7,0
	c0-3.1,0-6.1,0-9.2c-0.3,0-0.5,0-0.7,0c-4.7,0-9.5,0-14.2,0c-0.2,0-0.4,0-0.5,0c-0.5-0.1-0.8-0.3-0.8-0.8c0-0.5,0.2-0.8,0.7-0.9
	c0.2-0.1,0.4,0,0.7,0c2.7,0,5.4,0,8.1,0c0.2,0,0.4,0,0.7,0c0-2.4,0-4.7,0-7.1c-0.5,0-0.9,0-1.4,0c-1.6,0-3.2,0.1-4.8,0
	c-0.8,0-1.7-0.3-2.5-0.5c-0.6-0.2-0.7-0.7-0.5-1.2c0.2-0.5,0.7-0.6,1.3-0.4c0.6,0.2,1.3,0.4,1.9,0.4c4,0,7.9,0,11.9,0
	c1.2,0,2.1-0.5,2.6-1.6c0.5-1.1,1.1-2.2,1.6-3.3c0.3-0.6,0.7-0.9,1.3-0.8c0.3,0,0.5,0,0.8,0c1,0,1.3-0.3,1.2-1.4c-0.9,0-1.9,0-2.8,0
	c-0.2,0-0.5,0.2-0.6,0.4c-1,1-2,2-2.9,3c-0.6,0.6-1.3,0.9-2.2,0.9c-2.4,0-4.8,0-7.2,0c-0.5,0-0.9,0-1.1-0.5c-0.2-0.5,0-0.8,0.3-1.1
	c0.3-0.4,0.6-0.8,0.9-1.2c-1.5-0.9-3-1.8-4.6-2.8c-0.4,0.7-0.9,1.4-1.3,2c-0.7,1.1-1.5,2.1-1.4,3.5c0,0.5-0.4,0.7-0.8,0.7
	c-0.5,0-0.9-0.2-0.9-0.7c0-0.7,0-1.4,0.2-2c0.1-0.5,0.4-1,0.7-1.4c2.2-3.4,4.5-6.8,6.7-10.3c1-1.5,2.3-2.2,4-2.2c2,0,4,0,6,0
	c0.2,0,0.4,0,0.7,0c0-0.4,0-0.7,0-1.1c0-0.2-0.1-0.4-0.3-0.5c-0.8-0.6-1.4-1.3-1.8-2.3c-0.1-0.2-0.3-0.4-0.5-0.4
	c-2.7-0.7-3.9-2.9-3.1-5.5C19,11,19,10.7,19,10.5c0.1-1.5,0-3,0.3-4.4c0.8-3.4,3.9-5.7,7.3-5.7c2,0,4-0.1,5.9,0.1
	c3.6,0.4,6.4,3.6,6.5,7.3c0,0.6,0,1.1,0,1.7c0,0.8,0,1.6,0.3,2.5c0.6,2.1-0.8,4.3-3.1,4.8c-0.4,0.1-0.5,0.3-0.7,0.6
	c-0.4,0.7-0.8,1.4-1.3,1.8c-0.7,0.5-0.7,1.1-0.6,1.9c0.2,0,0.4,0,0.7,0c1.8,0,3.7,0,5.5,0c2.6,0,4,1.5,4.5,3.8
	c0.1,0.5-0.1,0.9-0.6,1c-0.5,0.2-0.9,0-1.1-0.5c-0.1-0.3-0.2-0.6-0.3-0.9c-0.4-1.1-1.2-1.7-2.3-1.7c-1.4,0-2.7,0-4.1,0
	c-0.4,0-0.4,0.2-0.5,0.5c-0.9,2.8-3.4,4.6-6.3,4.6c-2.8,0-5.3-1.8-6.3-4.5c-0.1-0.2-0.1-0.4-0.2-0.6c-1.8,0-3.6,0-5.4,0
	c-0.7,0-1.2,0.4-1.6,1c-1.3,1.9-2.6,3.9-3.8,5.8c0,0,0,0.1-0.1,0.2c1.5,0.9,3,1.8,4.6,2.8c0.5-0.6,1-1.3,1.4-1.9
	c0.3-0.4,0.7-0.7,1.2-0.5c0.5,0.2,0.6,0.6,0.6,1.1c0,1.2,0,2.5,0,3.8c1.1,0,2.2,0,3.2,0c0.2,0,0.5-0.2,0.7-0.4c1-1,2-2,2.9-3
	c0.6-0.6,1.2-0.9,2.1-0.9c1,0,1.9,0,2.9,0c1.1,0,1.6,0.5,1.6,1.6c0,0.3,0,0.5,0,0.8c1.6,0,3.1,0,4.7,0c0-0.7,0-1.4,0-2.1
	c0-0.3,0.2-0.7,0.4-0.9c0.5-0.4,1.3,0,1.3,0.7c0,0.7,0,1.5,0,2.3c2,0,4,0,6,0c-0.1-0.4-0.2-0.7-0.4-1.1c-0.3-0.9-0.6-1.8-1-2.8
	c-0.2-0.6,0-1.1,0.5-1.2c0.5-0.2,1,0.1,1.2,0.6c0.4,1.2,0.8,2.3,1.2,3.5c0.1,0.2,0.1,0.4,0.2,0.6c0.2-0.2,0.5-0.4,0.7-0.5
	c1.5-1.4,3.1-2.8,4.6-4.2c1.1-1,2.1-1.2,3-0.5c1.4,1,1.8,2.4,1.2,3.7c-0.6,1.2-1.2,2.3-1.9,3.5c-0.2,0.3-0.3,0.7-0.3,1
	c-0.3,2.2-1.4,3.4-3.6,3.7c-0.1,0-0.2,0-0.1,0.1c-0.4,0.5-0.8,1-1.3,1.6c0.4,1.3,0.9,2.8,1.4,4.3c0.5,1.5,0.1,3.1-1.1,4
	c-1.9,1.6-4.8,0.7-5.6-1.7c-0.5-1.7-1-3.5-1.5-5.3c-0.1-0.3-0.2-0.5-0.6-0.6c-1-0.2-1.4-1-1.4-2c-0.4,0-0.9,0.1-1.4,0.1
	c0,0.3,0,0.5,0,0.7c0,2.6,0,5.2,0,7.9c0,0.9,0.2,1.7,0.5,2.6c1.1,2.7,0.7,5.2-1.1,7.5c-1.1,1.3-2.5,2.1-4.1,2.4
	c-0.1,0-0.3,0.1-0.4,0.1C25.4,61.4,16.7,61.4,8.1,61.4z M25.6,59.6c0.2,0,0.4,0,0.6,0c2.2,0,4.4,0,6.7,0c4.2,0,6.7-3.9,5.1-7.7
	c-1.1-2.4-2.2-4.9-3.2-7.3c-0.2-0.4-0.4-0.5-0.8-0.5c-2.5,0-4.9,0-7.4,0c-0.2,0-0.3,0-0.6,0c0.4,1.5,0.8,3,1.2,4.4
	c0.3,1-0.3,1.8-1.3,1.9c-0.1,0-0.2,0-0.4,0C25.6,53.5,25.6,56.5,25.6,59.6z M25.3,41.2c0.2,1.1,0.2,1.1,1.2,1.1c2.2,0,4.4,0,6.5,0
	c0.2,0,0.4,0,0.7,0c-0.2-0.4-0.3-0.7-0.4-1.1c-0.4-1,0.1-2,1.1-2.3c0.4-0.1,0.7-0.1,1.1-0.2c1.6-0.1,3.1-0.3,4.7-0.4
	c0.3,0,0.6-0.1,0.8-0.5c0.4-0.7,1.1-1.2,1.9-1.3c1.4-0.2,2.8-0.4,4.2-0.6c1.1-0.2,2.3,0.3,2.8,1.4c0.3,0.6,0.8,0.6,1.3,0.4
	c0.8-0.3,1.3-0.8,1.4-1.6c0.1-1,0.4-1.8,0.9-2.7c0.5-0.8,0.9-1.6,1.3-2.5c0.1-0.2,0.2-0.3,0.2-0.5c0.2-0.6-0.1-1-0.6-1.3
	c-0.5-0.3-0.6,0.2-0.9,0.4c-1.6,1.4-3.1,2.8-4.6,4.2c-1,0.9-2.1,1.3-3.5,1.3c-4.3,0-8.6,0-12.9,0c-0.2,0-0.5,0-0.7,0.1
	c-0.7,0.5-1.4,0.7-2.2,0.7c-0.4,0-0.6,0.1-0.7,0.5c-0.4,0.8-0.8,1.6-1.2,2.3C27.3,39.8,26.5,40.7,25.3,41.2z M25.3,7.2
	C24.4,7.5,24,8.1,24,9c0,2.2,0,4.4,0,6.7c0,1.6,1.1,2.7,2.7,2.7c1.5,0,3,0,4.5,0c1.7,0,2.8-1.1,2.8-2.8c0-1.7,0-3.4,0-5.1
	c0-0.2,0-0.3,0-0.4c-0.1,0-0.1,0-0.2,0c-1.2,0.2-2.4,0.3-3.6,0.5c-1.7,0.3-3.3-0.5-4.2-2C25.8,8.1,25.6,7.7,25.3,7.2z M22.3,9.9
	c0-0.4,0-0.7,0-1.1c0-1.6,1.2-3,2.7-3.3c0.8-0.2,1.4,0.1,1.8,0.7c0.3,0.4,0.5,0.9,0.7,1.3c0.6,1.1,1.4,1.4,2.6,1.3
	c1.2-0.2,2.5-0.4,3.7-0.5c0.9-0.1,1.7,0.4,1.9,1.3c0,0.1,0.1,0.2,0.1,0.3c0.5-0.1,0.9-0.1,1.4-0.2c0-0.7,0-1.4,0-2.1
	c-0.2-2.7-2.2-5.1-5-5.4c-2.1-0.2-4.2-0.3-6.3,0c-3.6,0.4-5.8,3.6-5.1,7.5C21.3,9.8,21.8,9.8,22.3,9.9z M24.5,22.8
	c0.3,1.8,2.4,3.3,4.4,3.3c2.1,0,4.2-1.4,4.6-3.3c-2.3,0.3-1.8-1.4-1.8-2.6c-1.8,0-3.6,0-5.3,0c0,0.7,0,1.3-0.1,1.9
	C26,22.9,25.2,22.8,24.5,22.8z M19.5,41.5c0,2.4,0,4.7,0,7.1c2,0,4,0,6,0c-0.6-2.3-1.3-4.5-1.9-6.8c0-0.1-0.2-0.3-0.3-0.3
	C22,41.5,20.7,41.5,19.5,41.5z M44.2,41.9c0.5,1.8,1,3.6,1.5,5.4c0.3,1,1.2,1.5,2.2,1.2c0.9-0.3,1.4-1.2,1.1-2.2
	c-0.3-0.9-0.6-1.8-0.9-2.8c-0.2-0.7-0.5-1.4-0.7-2.1C46.3,41.6,45.3,41.8,44.2,41.9z M48.6,39.5c-0.1-0.4-0.1-0.7-0.2-1
	c-0.1-0.5-0.5-0.9-1-0.8c-1.5,0.2-2.9,0.4-4.3,0.7c-0.6,0.1-0.8,0.5-0.8,1.1c0,0.3,0.1,0.6,0.1,1C44.5,40.1,46.5,39.8,48.6,39.5z
	 M37.3,45.8c0,0,0.1,0,0.1,0c0-1.8,0-3.6,0-5.4c-0.8,0.1-1.6,0.1-2.4,0.2C35.8,42.4,36.5,44.1,37.3,45.8z M22.3,14.9
	c0-0.9,0-1.7,0-2.5c0-0.6-0.5-0.7-0.9-0.8c-0.5-0.1-0.7,0.2-0.9,0.6C20.1,13.4,20.9,14.6,22.3,14.9z M35.8,14.9
	c1.3-0.3,2.1-1.4,1.8-2.6c-0.1-0.4-0.3-0.8-0.9-0.7c-0.5,0.1-0.9,0.4-0.9,0.9C35.8,13.2,35.8,14,35.8,14.9z M17.6,35.1
	c0-0.4,0-0.8,0-1.3c-0.3,0.5-0.6,0.8-0.9,1.3C17,35.1,17.3,35.1,17.6,35.1z"/>
</svg>
